<?xml version="1.0" encoding="utf-8"?>
<!-- Generator: Adobe Illustrator 22.0.1, SVG Export Plug-In . SVG Version: 6.00 Build 0)  -->
<svg version="1.1" id="Layer_1" xmlns="http://www.w3.org/2000/svg" xmlns:xlink="http://www.w3.org/1999/xlink" x="0px" y="0px"
	 viewBox="0 0 226.8 226.8" style="enable-background:new 0 0 226.8 226.8;" xml:space="preserve">
<style type="text/css">
	.st0{fill:#FFFFFF;}
</style>
<g id="eg39zu.tif">
	<g>
		<path class="st0" d="M151.1,29.6c1.7,0.6,3.4,1.2,4.8,2.4c3.5,3.2,4.5,8.2,2.3,12.4c-2.2,4.1-7,6.2-11.6,5
			c-4.5-1.2-7.5-5.3-7.4-10c0.1-4.6,3.3-8.5,8-9.5c0.1,0,0.2-0.1,0.3-0.2C148.7,29.6,149.9,29.6,151.1,29.6z"/>
		<path class="st0" d="M21.8,118.4c0.8-2,1.6-3.9,3.3-5.4c3.4-3,8.1-3.4,12-1.1c3.8,2.3,5.6,6.8,4.5,11.2c-1,4.1-4.8,7.3-9.1,7.5
			c-4.5,0.2-8.5-2.4-10.1-6.6c-0.2-0.4-0.1-0.9-0.6-1.2C21.8,121.3,21.8,119.9,21.8,118.4z"/>
		<path class="st0" d="M160.6,171.7c5.7,0,10.1,4.4,10.1,10.1c0,5.5-4.5,10-10,10c-5.6,0-10.1-4.5-10.1-10.1
			C150.6,176.1,155,171.7,160.6,171.7z"/>
		<path class="st0" d="M143.6,66.2c0-4.8,3.8-8.6,8.6-8.6c4.7,0,8.6,3.8,8.6,8.5c0,4.7-3.9,8.7-8.6,8.7
			C147.4,74.9,143.5,71.1,143.6,66.2z"/>
		<path class="st0" d="M136.1,179.5c-4.7,0-8.6-3.9-8.6-8.6c0-4.7,4-8.7,8.7-8.6c4.7,0.1,8.5,3.9,8.6,8.6
			C144.8,175.5,140.9,179.4,136.1,179.5z"/>
		<path class="st0" d="M44.9,104.6c0-4.8,3.9-8.5,8.7-8.5c4.7,0,8.6,4,8.6,8.6c0,4.7-4,8.7-8.7,8.6
			C48.7,113.3,44.9,109.4,44.9,104.6z"/>
		<path class="st0" d="M44.9,92.2c-4.7,0-8.5-3.8-8.5-8.6c0-4.8,4-8.7,8.7-8.7c4.7,0.1,8.5,3.9,8.5,8.6
			C53.6,88.4,49.8,92.2,44.9,92.2z"/>
		<path class="st0" d="M122.2,197.3c-4.8,0-8.6-3.8-8.6-8.6c0-4.8,3.9-8.6,8.6-8.6c4.7,0.1,8.5,3.9,8.6,8.6
			C130.8,193.5,127,197.3,122.2,197.3z"/>
		<path class="st0" d="M174.6,78c-4.8,0-8.6-3.8-8.6-8.5c0-4.8,3.8-8.7,8.6-8.7c4.7,0,8.7,3.9,8.6,8.7C183.2,74.2,179.4,78,174.6,78
			z"/>
		<path class="st0" d="M96.6,175c0-4.1,3.2-7.3,7.3-7.3c4.1,0,7.4,3.4,7.4,7.4c0,4.1-3.3,7.3-7.3,7.3
			C99.8,182.4,96.6,179.2,96.6,175z"/>
		<path class="st0" d="M117.8,164.5c-4.1,0-7.3-3.2-7.3-7.3c0-4.1,3.3-7.4,7.4-7.4c4,0,7.3,3.3,7.3,7.3
			C125.3,161.2,122,164.5,117.8,164.5z"/>
		<path class="st0" d="M58.7,74.7c0-4.2,3.2-7.4,7.4-7.3c4.1,0,7.3,3.2,7.3,7.3c0,4.2-3.2,7.4-7.4,7.3C61.9,82,58.6,78.8,58.7,74.7z
			"/>
		<path class="st0" d="M179.2,92.1c0,4-3.3,7.3-7.4,7.3c-4.1,0-7.3-3.3-7.3-7.5c0-4,3.3-7.3,7.4-7.3C175.9,84.6,179.2,88,179.2,92.1
			z"/>
		<path class="st0" d="M142,88.8c0-4,3.3-7.3,7.4-7.3c4.1,0,7.4,3.4,7.4,7.4c0,4-3.3,7.3-7.4,7.3C145.2,96.3,142,93,142,88.8z"/>
		<path class="st0" d="M55.6,55.6c0-4.1,3.2-7.4,7.3-7.4c4.1,0,7.4,3.3,7.4,7.4c0,4.1-3.3,7.3-7.4,7.3C58.8,63,55.6,59.7,55.6,55.6z
			"/>
		<path class="st0" d="M189.9,106.3c-4,0-7.4-3.2-7.4-7.3c-0.1-4,3.3-7.4,7.4-7.4c4,0,7.3,3.3,7.3,7.4
			C197.3,103,194,106.3,189.9,106.3z"/>
		<path class="st0" d="M96.2,187.3c0,4.1-3.2,7.3-7.3,7.3c-4.1,0-7.3-3.3-7.4-7.3c0-4.1,3.3-7.4,7.4-7.4
			C93.1,179.9,96.3,183.1,96.2,187.3z"/>
		<path class="st0" d="M81.9,95.7c0,4.1-3.3,7.4-7.4,7.4c-4.1,0-7.3-3.3-7.3-7.4c0-4.1,3.2-7.3,7.2-7.4
			C78.6,88.4,81.9,91.6,81.9,95.7z"/>
		<path class="st0" d="M85.1,160.2c0-3.5,2.8-6.3,6.3-6.3c3.5,0,6.4,2.9,6.3,6.4c0,3.4-2.8,6.2-6.2,6.2
			C87.9,166.5,85.1,163.7,85.1,160.2z"/>
		<path class="st0" d="M99.1,142.3c0-3.5,2.7-6.3,6.2-6.3c3.6,0,6.4,2.8,6.4,6.3c0,3.5-2.8,6.2-6.2,6.2
			C101.9,148.5,99.1,145.8,99.1,142.3z"/>
		<path class="st0" d="M76.6,178.7c-3.6,0-6.5-2.8-6.4-6.3c0-3.5,2.8-6.3,6.3-6.3c3.5,0,6.3,2.7,6.3,6.2
			C82.8,175.8,80,178.7,76.6,178.7z"/>
		<path class="st0" d="M85.2,65c3.5,0,6.2,2.9,6.1,6.4c0,3.4-2.9,6.3-6.3,6.2c-3.5-0.1-6.3-2.9-6.3-6.3C78.8,67.9,81.7,65,85.2,65z"
			/>
		<path class="st0" d="M171.5,110.3c0,3.5-2.7,6.2-6.3,6.2c-3.5,0-6.3-2.7-6.3-6.2c0-3.5,2.9-6.4,6.4-6.3
			C168.8,104,171.5,106.8,171.5,110.3z"/>
		<path class="st0" d="M93.6,98.6c-3.5,0-6.2-2.8-6.2-6.3c0-3.4,2.9-6.3,6.3-6.3c3.5,0,6.3,2.9,6.3,6.4
			C99.9,95.9,97.1,98.6,93.6,98.6z"/>
		<path class="st0" d="M177,117.1c0-3.5,2.8-6.3,6.3-6.3c3.5,0,6.3,2.8,6.3,6.4c0,3.5-2.9,6.3-6.3,6.2
			C179.8,123.4,177,120.6,177,117.1z"/>
		<path class="st0" d="M82,58.5c-3.5,0-6.2-2.7-6.2-6.3c0-3.4,2.8-6.3,6.3-6.3c3.5,0,6.4,2.9,6.3,6.4C88.3,55.8,85.5,58.5,82,58.5z"
			/>
		<path class="st0" d="M149,107.2c0,3.5-2.7,6.2-6.3,6.2c-3.5,0-6.2-2.8-6.2-6.3c0-3.5,2.7-6.3,6.2-6.3
			C146.3,100.8,149,103.6,149,107.2z"/>
		<path class="st0" d="M110.1,98.6c-3.1,0-5.4-2.3-5.5-5.3c0-3,2.4-5.4,5.4-5.4c3,0,5.4,2.3,5.4,5.3
			C115.5,96.2,113.2,98.6,110.1,98.6z"/>
		<path class="st0" d="M133.8,115.6c3.1,0,5.4,2.3,5.3,5.4c0,3-2.4,5.4-5.4,5.4c-3,0-5.4-2.5-5.4-5.5
			C128.4,117.9,130.8,115.6,133.8,115.6z"/>
		<path class="st0" d="M74.4,157.7c0,3-2.4,5.4-5.4,5.4c-3.1,0-5.4-2.4-5.4-5.5c0-2.9,2.5-5.3,5.4-5.3
			C71.9,152.3,74.4,154.8,74.4,157.7z"/>
		<path class="st0" d="M179.7,131c0,3-2.4,5.5-5.3,5.5c-2.9,0-5.4-2.5-5.4-5.5c0-3,2.3-5.4,5.3-5.4
			C177.4,125.6,179.7,127.9,179.7,131z"/>
		<path class="st0" d="M98.4,58.5c-3,0-5.4-2.5-5.3-5.5c0-2.9,2.5-5.3,5.5-5.3c3,0,5.3,2.4,5.3,5.5C103.8,56.2,101.5,58.5,98.4,58.5
			z"/>
		<path class="st0" d="M84,150.9c-3,0-5.4-2.4-5.5-5.3c0-3,2.4-5.4,5.4-5.4c3,0,5.4,2.4,5.5,5.4C89.4,148.5,87,150.9,84,150.9z"/>
		<path class="st0" d="M156.3,129.4c-3,0-5.4-2.3-5.4-5.3c0-3,2.4-5.4,5.4-5.4c3,0,5.4,2.3,5.4,5.4
			C161.6,127.2,159.4,129.4,156.3,129.4z"/>
		<path class="st0" d="M101.6,77.5c-3,0-5.4-2.3-5.5-5.3c0-3,2.5-5.5,5.5-5.5c2.9,0,5.3,2.5,5.3,5.4C107,75.1,104.6,77.5,101.6,77.5
			z"/>
		<path class="st0" d="M103.3,127.6c0,3-2.3,5.4-5.2,5.4c-3.1,0-5.6-2.4-5.5-5.4c0-3,2.4-5.4,5.4-5.4
			C100.9,122.2,103.3,124.6,103.3,127.6z"/>
		<path class="st0" d="M85.1,132c0,2.5-2.3,4.9-4.6,4.8c-2.4-0.1-4.7-2.5-4.6-4.9c0-2.6,2.1-4.6,4.7-4.5
			C83.2,127.4,85.2,129.3,85.1,132z"/>
		<path class="st0" d="M115.1,71.4c2.6,0,4.6,2,4.6,4.6c0,2.6-2,4.6-4.6,4.7c-2.6,0-4.6-2.1-4.6-4.7
			C110.4,73.4,112.4,71.4,115.1,71.4z"/>
		<path class="st0" d="M123.5,101.7c-2.6,0-4.6-2-4.6-4.6c0-2.7,2-4.6,4.8-4.6c2.6,0,4.6,2.1,4.6,4.7
			C128.2,99.7,126.1,101.7,123.5,101.7z"/>
		<path class="st0" d="M99.1,114.1c0,2.6-2.1,4.6-4.6,4.6c-2.5,0-4.6-2.2-4.7-4.7c0-2.5,2.1-4.6,4.7-4.6
			C97.1,109.4,99.2,111.4,99.1,114.1z"/>
		<path class="st0" d="M123.7,126.1c2.6,0,4.6,2,4.6,4.6c0,2.6-2,4.6-4.6,4.6c-2.7,0-4.7-2-4.7-4.7
			C119.1,128.1,121.2,126.1,123.7,126.1z"/>
		<path class="st0" d="M65.6,139.5c2.6,0,4.6,2.1,4.6,4.7c0,2.5-2.2,4.7-4.6,4.6c-2.5-0.1-4.7-2.3-4.7-4.8
			C61,141.5,63,139.5,65.6,139.5z"/>
		<path class="st0" d="M150.8,133.7c0,2.7-2,4.8-4.6,4.8c-2.5,0-4.6-2-4.6-4.6c0-2.6,2-4.7,4.5-4.7
			C148.7,129.1,150.8,131.1,150.8,133.7z"/>
		<path class="st0" d="M168.9,140.6c0,2.7-2,4.8-4.6,4.8c-2.6,0-4.6-2-4.6-4.6c0-2.6,2.1-4.8,4.7-4.7
			C166.8,136.1,168.8,138.1,168.9,140.6z"/>
		<path class="st0" d="M107.3,56.9c0-2.6,2.1-4.6,4.8-4.5c2.5,0,4.5,2,4.5,4.6c0,2.6-2.1,4.6-4.6,4.7
			C109.4,61.6,107.3,59.5,107.3,56.9z"/>
		<path class="st0" d="M118.4,62.6c0-2.2,1.8-4,4.1-3.9c2.2,0,3.9,1.8,3.9,4.1c-0.1,2.2-1.8,3.9-4,3.8
			C120.1,66.7,118.4,64.9,118.4,62.6z"/>
		<path class="st0" d="M61.4,132.2c0-2.2,1.6-3.9,3.8-4c2.2,0,4.1,1.7,4.1,3.9c0,2.2-1.8,4.1-4,4.1
			C63.2,136.2,61.4,134.5,61.4,132.2z"/>
		<path class="st0" d="M84.3,120c0,2.2-1.8,4-4,4c-2.2,0-4-1.9-4-4.1c0-2.1,1.8-3.9,3.9-3.9C82.6,116.1,84.3,117.8,84.3,120z"/>
		<path class="st0" d="M158,146.7c0,2.3-1.7,4.1-3.9,4.1c-2.2,0-4.1-1.8-4.1-4c0-2.2,1.8-4,4-4C156.3,142.9,158,144.6,158,146.7z"/>
		<path class="st0" d="M125.5,85.7c-2.3,0-4-1.6-4-3.9c0-2.3,1.7-4,4-4c2.2,0,3.9,1.7,4,3.9C129.4,84,127.8,85.7,125.5,85.7z"/>
		<path class="st0" d="M136.1,136c2.2,0,3.9,1.7,3.9,3.9c0,2.3-1.8,4-4,4c-2.2,0-3.9-1.8-3.9-4C132.1,137.6,133.8,136,136.1,136z"/>
		<path class="st0" d="M147.9,150c0,2-1.5,3.5-3.4,3.5c-1.8,0-3.4-1.6-3.4-3.4c0-1.9,1.5-3.5,3.5-3.4
			C146.4,146.6,147.8,148,147.9,150z"/>
		<path class="st0" d="M70.8,122.3c0,2-1.6,3.5-3.5,3.4c-1.8,0-3.4-1.6-3.4-3.5c0-1.9,1.6-3.4,3.6-3.4
			C69.4,118.9,70.9,120.4,70.8,122.3z"/>
		<path class="st0" d="M133.4,69.4c0,1.9-1.5,3.4-3.3,3.4c-2,0-3.5-1.4-3.5-3.4c0-2,1.4-3.4,3.3-3.4
			C131.9,66.1,133.3,67.5,133.4,69.4z"/>
	</g>
</g>
<g>
	<path class="st0" d="M113.4,0C50.8,0,0,50.8,0,113.4c0,62.7,50.8,113.4,113.4,113.4c62.7,0,113.4-50.8,113.4-113.4
		C226.9,50.8,176.1,0,113.4,0z M113.4,214.7c-55.9,0-101.2-45.3-101.2-101.2c0-55.9,45.3-101.2,101.2-101.2
		c55.9,0,101.2,45.3,101.2,101.2C214.7,169.3,169.3,214.7,113.4,214.7z"/>
</g>
</svg>
