<?xml version="1.0" encoding="utf-8"?>
<!-- Generator: Adobe Illustrator 22.0.1, SVG Export Plug-In . SVG Version: 6.00 Build 0)  -->
<svg version="1.1" id="Layer_1" xmlns="http://www.w3.org/2000/svg" xmlns:xlink="http://www.w3.org/1999/xlink" x="0px" y="0px"
	 viewBox="0 0 226.8 226.8" style="enable-background:new 0 0 226.8 226.8;" xml:space="preserve">
<style type="text/css">
	.st0{fill:#FFFFFF;}
	.st1{fill:#FF5B04;}
	.st2{fill:#434343;}
</style>
<circle class="st0" cx="113.4" cy="113.4" r="110"/>
<path class="st1" d="M39.7,149V53.9l73.7,73.7l73.7-73.7V149h33.9c3.8-11.5,5.7-23.5,5.7-35.6C226.8,50.8,176,0.1,113.4,0.1
	C50.8,0.1,0.1,50.8,0.1,113.4c0,12.4,2,24.4,5.7,35.6L39.7,149L39.7,149z"/>
<path class="st2" d="M162.5,172.1v-60.2L113,161.4l-49.1-49.1v59.8H16.4c19.9,32.8,55.9,54.7,97,54.7c41.1,0,77.1-21.9,97-54.7
	L162.5,172.1L162.5,172.1z"/>
</svg>
